<svg width="41" height="40" viewBox="0 0 41 40" fill="none" xmlns="http://www.w3.org/2000/svg">
<rect x="0.5" width="40" height="40" rx="8" fill="#2B3139"/>
<path fill-rule="evenodd" clip-rule="evenodd" d="M18.6818 15.2727C18.6818 14.1179 19.6179 13.1818 20.7727 13.1818C21.9275 13.1818 22.8636 14.1179 22.8636 15.2727C22.8636 15.8507 22.6319 16.3706 22.2512 16.7512L18.6818 20.3206V24.4727H22.8636V22.0528L25.2082 19.7082C26.3411 18.5754 27.0455 17.0043 27.0455 15.2727C27.0455 11.8084 24.2371 9 20.7727 9C17.3084 9 14.5 11.8084 14.5 15.2727V16.1091H18.6818V15.2727ZM18.6818 27.8182V32H22.8636V27.8182H18.6818Z" fill="#5E6673"/>
</svg>
