<svg width="64" height="64" viewBox="0 0 64 64" fill="none" xmlns="http://www.w3.org/2000/svg">
<path opacity="0.2" d="M8.00073 17.3327C8.00073 13.6508 10.9855 10.666 14.6674 10.666H56.0007V23.9993H14.6674C10.9855 23.9993 8.00073 21.0146 8.00073 17.3327Z" fill="#AEB4BC"/>
<path fill-rule="evenodd" clip-rule="evenodd" d="M43.3129 23.9999H23.3551C22.0785 22.093 21.334 19.7998 21.334 17.3327C21.334 10.7053 26.7066 5.33267 33.334 5.33267C39.9614 5.33267 45.334 10.7053 45.334 17.3327C45.334 19.7998 44.5895 22.093 43.3129 23.9999ZM33.334 12.0827L38.584 17.3327L33.334 22.5827L28.084 17.3327L33.334 12.0827Z" fill="#F0B90B"/>
<path opacity="0.5" d="M8.00073 17.3327V50.666C8.00073 55.0843 11.5825 58.666 16.0007 58.666H56.0007V47.9993H42.6674V34.666H56.0007V23.9993H14.6674C10.9855 23.9993 8.00073 21.0146 8.00073 17.3327Z" fill="#AEB4BC"/>
<path opacity="0.5" d="M49.334 37.3327L53.334 41.3327L49.334 45.3327L45.334 41.3327L49.334 37.3327Z" fill="#AEB4BC"/>
<path d="M36 45.9951C36 39.0004 41.6703 33.3301 48.665 33.3301C55.6597 33.3301 61.33 39.0004 61.33 45.9951C61.33 52.9898 55.6597 58.6601 48.665 58.6601C41.6703 58.6601 36 52.9898 36 45.9951Z" fill="#1E2329"/>
<path fill-rule="evenodd" clip-rule="evenodd" d="M48.665 33.3301C41.6703 33.3301 36 39.0004 36 45.9951C36 52.9898 41.6703 58.6601 48.665 58.6601C55.6597 58.6601 61.33 52.9898 61.33 45.9951C61.33 39.0004 55.6597 33.3301 48.665 33.3301ZM42.3325 47.5782L42.3325 44.412L54.9975 44.412V47.5782H42.3325Z" fill="#FF375B"/>
</svg>
