<svg width="65" height="65" viewBox="0 0 65 65" fill="none" xmlns="http://www.w3.org/2000/svg">
<g id="il/seed-phrase">
<path id="Subtract" opacity="0.5" fill-rule="evenodd" clip-rule="evenodd" d="M59.5872 11.4478H6.25391V54.1144H59.5872V11.4478ZM54.2539 16.7811H11.5872V22.1144H10.2539V30.1144H11.5872V35.4478H10.2539V43.4478H11.5872V48.7811H54.2539V16.7811Z" fill="#AEB4BC"/>
<path id="Subtract_2" opacity="0.2" fill-rule="evenodd" clip-rule="evenodd" d="M11.5859 16.7812H54.2526V48.7812H11.5859V43.4479H12.9193V35.4479H11.5859V30.1146H12.9193V22.1146H11.5859V16.7812ZM51.5856 22.1146H48.9189V43.4479H51.5856V22.1146Z" fill="#AEB4BC"/>
<g id="Vector">
<path d="M23.5866 24.7812H20.9199V27.4479H23.5866V24.7812Z" fill="#F0B90B"/>
<path d="M43.5866 24.7812H26.2533V27.4479H43.5866V24.7812Z" fill="#F0B90B"/>
<path d="M23.5866 31.4479H20.9199V34.1146H23.5866V31.4479Z" fill="#F0B90B"/>
<path d="M43.5866 31.4479H26.2533V34.1146H43.5866V31.4479Z" fill="#F0B90B"/>
<path d="M23.5866 38.1146H20.9199V40.7812H23.5866V38.1146Z" fill="#F0B90B"/>
<path d="M43.5866 38.1146H26.2533V40.7812H43.5866V38.1146Z" fill="#F0B90B"/>
</g>
</g>
</svg>
